<?xml version="1.0" standalone="no"?>
<!DOCTYPE svg PUBLIC "-//W3C//DTD SVG 20010904//EN"
 "http://www.w3.org/TR/2001/REC-SVG-20010904/DTD/svg10.dtd">
<svg version="1.0" xmlns="http://www.w3.org/2000/svg"
 width="169.000000pt" height="182.000000pt" viewBox="0 0 169.000000 182.000000"
 preserveAspectRatio="xMidYMid meet">

<g transform="translate(0.000000,182.000000) scale(0.100000,-0.100000)"
fill="#000000" stroke="none">
<path d="M243 1581 c-81 -37 -78 -12 -81 -651 -2 -311 0 -584 3 -608 16 -113
164 -168 273 -102 67 41 67 38 70 417 2 189 6 343 10 343 4 0 61 -54 127 -120
125 -125 149 -140 228 -140 65 0 100 24 225 151 l121 124 1 -339 c0 -318 1
-342 20 -381 28 -59 69 -80 155 -80 88 1 126 19 154 78 21 43 21 54 21 623 0
552 -1 581 -20 622 -15 33 -29 47 -62 62 -47 22 -121 26 -165 10 -15 -6 -124
-106 -240 -223 l-213 -212 -82 80 c-46 44 -144 139 -218 212 -74 73 -148 137
-163 143 -43 16 -118 12 -164 -9z"/>
</g>
</svg>
